<svg width="743" height="179" viewBox="0 0 743 179" fill="none" xmlns="http://www.w3.org/2000/svg">
<path d="M21.808 1.8L21.808 81H3.76L3.76 1.8L21.808 1.8ZM99.4353 1.8L131.403 81L112.011 81L106.155 65.16H76.0112L70.1552 81H50.7632L82.7312 1.8L99.4353 1.8ZM100.011 49.32L91.1792 26.28H90.9873L82.1553 49.32H100.011ZM205.724 1.8V17.64L178.46 17.64V33.384H204.573V49.224L178.46 49.224V65.16H205.724V81H160.412V1.8L205.724 1.8ZM271.204 0.359997C285.604 0.359997 295.78 7.848 295.78 7.848L288.484 22.248C288.484 22.248 280.612 16.776 272.452 16.776C266.308 16.776 263.044 19.56 263.044 23.88C263.044 28.296 270.532 31.464 279.556 35.304C288.388 39.048 298.084 46.536 298.084 56.904C298.084 75.816 283.684 82.44 268.228 82.44C249.7 82.44 238.468 71.976 238.468 71.976L247.492 56.808C247.492 56.808 258.052 65.736 266.884 65.736C270.82 65.736 278.308 65.352 278.308 57.96C278.308 52.2 269.86 49.608 260.452 44.904C250.948 40.2 245.38 32.808 245.38 24.552C245.38 9.768 258.436 0.359997 271.204 0.359997ZM322.854 17.64V1.8L378.534 1.8V17.64L359.718 17.64V81H341.67V17.64L322.854 17.64ZM456.266 1.8V17.64H429.002V33.384H455.114V49.224H429.002V65.16H456.266V81H410.954V1.8L456.266 1.8Z" fill="#F2F2F2"/>
<path d="M45.904 160.68C55.12 160.68 61.456 155.784 61.456 155.784L69.136 171.144C69.136 171.144 60.304 178.44 43.12 178.44C20.752 178.44 0.208 160.2 0.208 137.544C0.208 114.792 20.656 96.36 43.12 96.36C60.304 96.36 69.136 103.656 69.136 103.656L61.456 119.016C61.456 119.016 55.12 114.12 45.904 114.12C27.76 114.12 19.792 126.792 19.792 137.352C19.792 148.008 27.76 160.68 45.904 160.68ZM142.185 97.8L174.153 177H154.761L148.905 161.16H118.761L112.905 177H93.5132L125.481 97.8L142.185 97.8ZM142.761 145.32L133.929 122.28H133.737L124.905 145.32H142.761ZM230.471 96.36C244.871 96.36 255.047 103.848 255.047 103.848L247.751 118.248C247.751 118.248 239.879 112.776 231.719 112.776C225.575 112.776 222.311 115.56 222.311 119.88C222.311 124.296 229.799 127.464 238.823 131.304C247.656 135.048 257.352 142.536 257.352 152.904C257.352 171.816 242.951 178.44 227.495 178.44C208.967 178.44 197.735 167.976 197.735 167.976L206.759 152.808C206.759 152.808 217.319 161.736 226.151 161.736C230.087 161.736 237.575 161.352 237.575 153.96C237.575 148.2 229.127 145.608 219.719 140.904C210.215 136.2 204.647 128.808 204.647 120.552C204.647 105.768 217.703 96.36 230.471 96.36ZM337.02 97.8V113.64H309.756V129.384H335.868V145.224H309.756V161.16H337.02V177H291.708V97.8L337.02 97.8ZM434.083 177L421.411 132.552L408.739 177H388.675L366.115 97.8H386.179L399.715 152.136H400.195L414.595 97.8H428.227L442.627 152.136H443.107L456.643 97.8H476.611L454.051 177L434.083 177ZM552.172 97.8V113.64H524.908V129.384H551.02V145.224H524.908V161.16H552.172V177H506.86V97.8H552.172ZM633.78 97.8V113.64H606.516V129.384H632.628V145.224L606.516 145.224V161.16L633.78 161.16V177L588.468 177V97.8H633.78ZM742.171 177H717.307L688.123 143.4V177H670.075V97.8H688.123V130.152L715.291 97.8H737.179L705.307 135.336L742.171 177Z" fill="#2C2C2C"/>
</svg>
