<svg width="98" height="91" viewBox="0 0 98 91" fill="none" xmlns="http://www.w3.org/2000/svg">
<circle cx="48.8691" cy="45.4959" r="4.54961" fill="#DAB88B"/>
<path d="M64.0674 45.4961C64.0674 57.7756 62.0711 68.7544 58.9518 76.5525C57.3888 80.4599 55.6028 83.4207 53.773 85.3556C51.9492 87.2841 50.291 87.9922 48.869 87.9922C47.447 87.9922 45.7888 87.2841 43.965 85.3556C42.1352 83.4207 40.3491 80.4599 38.7862 76.5525C35.6669 68.7544 33.6705 57.7756 33.6705 45.4961C33.6705 33.2167 35.6669 22.2379 38.7862 14.4397C40.3491 10.5323 42.1352 7.57149 43.965 5.63663C45.7888 3.70811 47.447 3 48.869 3C50.291 3 51.9492 3.70811 53.773 5.63663C55.6028 7.57149 57.3888 10.5323 58.9518 14.4397C62.0711 22.2379 64.0674 33.2167 64.0674 45.4961Z" stroke="#DAB88B" stroke-width="6"/>
<path d="M56.4683 58.6589C45.834 64.7986 35.3279 68.5591 27.0148 69.7568C22.8494 70.357 19.3923 70.2906 16.8018 69.6734C14.2197 69.0582 12.7774 67.9762 12.0664 66.7447C11.3554 65.5132 11.1395 63.7231 11.8978 61.1794C12.6585 58.6273 14.3296 55.6002 16.932 52.2929C22.1258 45.6924 30.6356 38.4741 41.2699 32.3344C51.9042 26.1947 62.4103 22.4342 70.7233 21.2365C74.8887 20.6363 78.3459 20.7027 80.9364 21.3199C83.5185 21.9351 84.9608 23.0171 85.6718 24.2486C86.3828 25.4801 86.5986 27.2702 85.8404 29.8139C85.0797 32.366 83.4086 35.3931 80.8062 38.7004C75.6124 45.3009 67.1026 52.5192 56.4683 58.6589Z" stroke="#DAB88B" stroke-width="6"/>
<path d="M56.4683 32.3323C45.834 26.1926 35.3279 22.4321 27.0148 21.2344C22.8494 20.6342 19.3923 20.7006 16.8018 21.3179C14.2197 21.9331 12.7774 23.015 12.0664 24.2465C11.3554 25.478 11.1395 27.2681 11.8978 29.8118C12.6585 32.3639 14.3296 35.391 16.932 38.6983C22.1258 45.2988 30.6356 52.5171 41.2699 58.6568C51.9042 64.7965 62.4103 68.557 70.7233 69.7548C74.8887 70.3549 78.3459 70.2885 80.9364 69.6713C83.5185 69.0561 84.9608 67.9741 85.6718 66.7426C86.3828 65.5111 86.5986 63.721 85.8404 61.1773C85.0797 58.6252 83.4086 55.5981 80.8062 52.2908C75.6124 45.6904 67.1026 38.4721 56.4683 32.3323Z" stroke="#DAB88B" stroke-width="6"/>
</svg>
