<svg width="64" height="70" viewBox="0 0 64 70" fill="none" xmlns="http://www.w3.org/2000/svg">
<path d="M60.258 35V47C60.258 56.4281 60.258 61.1421 57.3291 64.0711C54.4002 67 49.6861 67 40.258 67H12.258C7.34883 67 3.36914 63.0203 3.36914 58.1111V58.1111C3.36914 53.2019 7.34883 49.2222 12.258 49.2222H56.258C58.1436 49.2222 59.0865 49.2222 59.6722 48.6364C60.258 48.0506 60.258 47.1078 60.258 45.2222V23C60.258 13.5719 60.258 8.85786 57.3291 5.92893C54.4002 3 49.6861 3 40.258 3H23.3691C13.941 3 9.22701 3 6.29807 5.92893C3.36914 8.85786 3.36914 13.5719 3.36914 23V58.1111" stroke="#DAB88B" stroke-width="6"/>
<path d="M21.147 20.7783L42.4804 20.7783" stroke="#DAB88B" stroke-width="6" stroke-linecap="round"/>
</svg>
