<svg width="753" height="753" viewBox="0 0 753 753" fill="none" xmlns="http://www.w3.org/2000/svg">
<path fill-rule="evenodd" clip-rule="evenodd" d="M451.184 20.3922C454.472 26.7671 455.296 34.9308 456.929 51.2586C460.02 82.1642 461.565 97.6145 468.033 106.093C476.237 116.848 489.574 122.378 502.98 120.575C513.549 119.153 525.572 109.317 549.611 89.6485C562.311 79.2578 568.663 74.0634 575.495 71.8806C584.174 69.1082 593.563 69.5774 601.922 73.1996C608.503 76.0515 614.301 81.8512 625.904 93.454L659.546 127.092C671.149 138.695 676.944 144.496 679.796 151.078C683.418 159.437 683.892 168.827 681.119 177.505C678.937 184.337 673.742 190.689 663.351 203.389C643.683 227.428 633.842 239.446 632.421 250.015C630.617 263.421 636.143 276.767 646.898 284.972C655.376 291.44 670.83 292.985 701.737 296.076C718.065 297.708 726.237 298.523 732.612 301.811C740.709 305.987 747.012 312.96 750.362 321.431C752.999 328.102 753 336.306 753 352.716V400.289C753 416.694 752.998 424.9 750.362 431.569C747.012 440.043 740.702 447.012 732.603 451.189C726.23 454.475 718.071 455.292 701.746 456.924C670.85 460.014 655.402 461.56 646.926 468.024C636.165 476.229 630.632 489.579 632.439 502.99C633.862 513.554 643.69 525.567 663.351 549.597C673.739 562.292 678.937 568.643 681.119 575.472C683.894 584.153 683.42 593.546 679.796 601.908C676.944 608.487 671.145 614.286 659.546 625.885L625.904 659.528C614.301 671.13 608.503 676.935 601.922 679.787C593.563 683.409 584.174 683.873 575.495 681.101C568.663 678.918 562.311 673.724 549.611 663.333C525.573 643.665 513.549 633.833 502.98 632.412C489.574 630.608 476.237 636.134 468.033 646.889C461.565 655.367 460.02 670.822 456.929 701.732C455.296 718.068 454.474 726.236 451.184 732.612C447.009 740.706 440.047 747.012 431.578 750.362C424.906 753.001 416.694 753 400.279 753H352.711C336.302 753 328.102 752.999 321.431 750.362C312.96 747.012 305.992 740.704 301.816 732.608C298.528 726.233 297.704 718.07 296.071 701.741C292.98 670.834 291.435 655.381 284.967 646.903C276.763 636.148 263.425 630.622 250.02 632.425C239.45 633.847 227.429 643.682 203.389 663.351C190.689 673.743 184.338 678.937 177.505 681.119C168.827 683.891 159.437 683.422 151.078 679.8C144.496 676.948 138.691 671.15 127.087 659.546L93.454 625.908C81.8507 614.305 76.0469 608.504 73.1951 601.922C69.5731 593.563 69.1084 584.173 71.8806 575.495C74.0634 568.662 79.2572 562.311 89.6485 549.611C109.317 525.572 119.148 513.554 120.57 502.985C122.373 489.579 116.848 476.233 106.093 468.028C97.6144 461.56 82.1597 460.015 51.254 456.924C34.9264 455.292 26.7624 454.477 20.3876 451.189C12.2908 447.013 5.98773 440.041 2.63807 431.569C0.000798524 424.898 1.19866e-10 416.698 1.19866e-10 400.289V352.716C1.19866e-10 336.303 -0.000593303 328.099 2.63807 321.427C5.98763 312.957 12.2936 305.987 20.3876 301.811C26.7638 298.522 34.9313 297.709 51.2632 296.076C82.1771 292.984 97.6314 291.438 106.111 284.967C116.862 276.764 122.389 263.422 120.588 250.02C119.168 239.448 109.333 227.427 89.6577 203.38C79.2621 190.674 74.0632 184.322 71.8806 177.486C69.1107 168.811 69.5757 159.425 73.1951 151.069C76.047 144.484 81.8556 138.681 93.4632 127.073L127.096 93.4402C138.7 81.8366 144.496 76.0331 151.078 73.1813C159.437 69.5595 168.827 69.0902 177.505 71.8622C184.338 74.045 190.686 79.2417 203.389 89.6348C227.425 109.301 239.445 119.133 250.01 120.556C263.42 122.362 276.771 116.834 284.976 106.074C291.441 97.5975 292.981 82.1511 296.071 51.254C297.703 34.9309 298.52 26.7702 301.807 20.3968C305.983 12.2972 312.956 5.98784 321.431 2.63807C328.1 0.00222778 336.307 0 352.711 0H400.289C416.698 0 424.898 0.000773625 431.569 2.63807C440.041 5.98773 447.008 12.2955 451.184 20.3922ZM376.5 527.1C459.674 527.1 527.1 459.674 527.1 376.5C527.1 293.326 459.674 225.9 376.5 225.9C293.326 225.9 225.9 293.326 225.9 376.5C225.9 459.674 293.326 527.1 376.5 527.1Z" fill="#ECDBC5"/>
</svg>
