<svg width="93" height="75" viewBox="0 0 93 75" fill="none" xmlns="http://www.w3.org/2000/svg">
<circle cx="46.3966" cy="19.2" r="16.2" stroke="#DAB88B" stroke-width="6" stroke-linecap="round"/>
<path d="M60.5239 27.2996C62.0356 24.6812 64.5256 22.7706 67.446 21.9881C70.3665 21.2055 73.4782 21.6152 76.0966 23.1269C78.715 24.6387 80.6256 27.1286 81.4081 30.0491C82.1907 32.9695 81.781 36.0812 80.2693 38.6996C78.7575 41.318 76.2676 43.2286 73.3471 44.0112C70.4267 44.7937 67.315 44.384 64.6966 42.8723C62.0782 41.3606 60.1676 38.8706 59.385 35.9501C58.6025 33.0297 59.0122 29.918 60.5239 27.2996L60.5239 27.2996Z" stroke="#DAB88B" stroke-width="6"/>
<path d="M12.5239 27.2996C14.0356 24.6812 16.5256 22.7706 19.446 21.9881C22.3665 21.2055 25.4782 21.6152 28.0966 23.1269C30.715 24.6387 32.6256 27.1286 33.4081 30.0491C34.1907 32.9695 33.781 36.0812 32.2693 38.6996C30.7575 41.318 28.2676 43.2286 25.3471 44.0112C22.4267 44.7937 19.315 44.384 16.6966 42.8723C14.0782 41.3606 12.1676 38.8706 11.385 35.9501C10.6025 33.0297 11.0122 29.918 12.5239 27.2996L12.5239 27.2996Z" stroke="#DAB88B" stroke-width="6"/>
<path d="M69.8278 67.2L66.8868 67.7923L67.3717 70.2H69.8278V67.2ZM89.4055 66.0929L92.3474 65.5053V65.5053L89.4055 66.0929ZM59.744 51.4106L57.9294 49.0216L54.4597 51.657L58.1596 53.9581L59.744 51.4106ZM88.4633 64.2H69.8278V70.2H88.4633V64.2ZM86.4636 66.6805C86.1803 65.2624 87.3299 64.2 88.4633 64.2V70.2C90.7996 70.2 92.8662 68.1032 92.3474 65.5053L86.4636 66.6805ZM70.3961 51C76.4004 51 80.111 53.854 82.5315 57.2537C85.0325 60.7664 86.0904 64.8124 86.4636 66.6805L92.3474 65.5053C91.9041 63.2862 90.6317 58.2858 87.4193 53.7738C84.1264 49.1488 78.7405 45 70.3961 45V51ZM61.5585 53.7996C63.7121 52.1638 66.5501 51 70.3961 51V45C65.2185 45 61.11 46.6058 57.9294 49.0216L61.5585 53.7996ZM58.1596 53.9581C63.7678 57.4461 66.0112 63.4447 66.8868 67.7923L72.7687 66.6077C71.7619 61.6086 69.0045 53.6373 61.3284 48.8631L58.1596 53.9581Z" fill="#DAB88B"/>
<path d="M33.049 51.4104L34.6334 53.9579L38.3334 51.6568L34.8635 49.0213L33.049 51.4104ZM3.3877 66.0929L6.32958 66.6805L3.3877 66.0929ZM22.9649 67.2V70.2H25.4209L25.9058 67.7923L22.9649 67.2ZM22.3972 51C26.2431 51 29.081 52.1637 31.2345 53.7994L34.8635 49.0213C31.683 46.6056 27.5746 45 22.3972 45V51ZM6.32958 66.6805C6.70273 64.8124 7.76072 60.7664 10.2617 57.2537C12.6823 53.854 16.3929 51 22.3972 51V45C14.0528 45 8.66692 49.1488 5.374 53.7737C2.1615 58.2857 0.889072 63.2862 0.44581 65.5053L6.32958 66.6805ZM4.3299 64.2C5.46324 64.2 6.61285 65.2624 6.32958 66.6805L0.44581 65.5053C-0.0730965 68.1031 1.99356 70.2 4.3299 70.2V64.2ZM22.9649 64.2H4.3299V70.2H22.9649V64.2ZM25.9058 67.7923C26.7814 63.4446 29.0249 57.4459 34.6334 53.9579L31.4647 48.8628C23.7882 53.637 21.0308 61.6085 20.0239 66.6077L25.9058 67.7923Z" fill="#DAB88B"/>
<path d="M46.3967 48C67.4521 48 70.0354 66.4722 70.3523 71.0049C70.3909 71.5558 69.949 72 69.3967 72H23.3967C22.8444 72 22.4025 71.5558 22.441 71.0049C22.7579 66.4722 25.3412 48 46.3967 48Z" stroke="#DAB88B" stroke-width="6" stroke-linecap="round"/>
</svg>
