<svg width="88" height="87" viewBox="0 0 88 87" fill="none" xmlns="http://www.w3.org/2000/svg">
<circle cx="27.1927" cy="31.5881" r="16.0588" stroke="#DAB88B" stroke-width="6" stroke-linecap="round"/>
<path d="M40.8823 42.6471C42.38 40.053 44.8468 38.1601 47.7401 37.3848C50.6334 36.6096 53.7162 37.0154 56.3103 38.5131C58.9044 40.0108 60.7973 42.4777 61.5725 45.371C62.3478 48.2643 61.9419 51.3471 60.4443 53.9412C58.9466 56.5353 56.4797 58.4281 53.5864 59.2034C50.6931 59.9787 47.6103 59.5728 45.0162 58.0751C42.4221 56.5774 40.5292 54.1106 39.754 51.2173C38.9787 48.3239 39.3846 45.2411 40.8823 42.6471L40.8823 42.6471Z" stroke="#DAB88B" stroke-width="6"/>
<path d="M50.4517 79.2356L47.5107 79.8279L47.9956 82.2356H50.4517V79.2356ZM69.8837 78.1282L72.8254 77.5396V77.5396L69.8837 78.1282ZM40.442 63.5623L38.6274 61.1733L35.1578 63.8087L38.8576 66.1098L40.442 63.5623ZM68.9418 76.2356H50.4517V82.2356H68.9418V76.2356ZM66.9421 78.7168C66.6584 77.2993 67.8071 76.2356 68.9418 76.2356V82.2356C71.2796 82.2356 73.3451 80.1367 72.8254 77.5396L66.9421 78.7168ZM51.0158 63.1768C56.9635 63.1768 60.6395 66.0013 63.039 69.3681C65.519 72.8479 66.5702 76.8585 66.9421 78.7168L72.8254 77.5396C72.3833 75.3299 71.1172 70.3648 67.9251 65.8858C64.6525 61.294 59.3015 57.1768 51.0158 57.1768V63.1768ZM42.2566 65.9513C44.3906 64.3304 47.203 63.1768 51.0158 63.1768V57.1768C45.8714 57.1768 41.7884 58.7723 38.6274 61.1733L42.2566 65.9513ZM38.8576 66.1098C44.417 69.5674 46.642 75.5147 47.5107 79.8279L53.3926 78.6433C52.3927 73.6785 49.6538 65.7586 42.0264 61.0148L38.8576 66.1098Z" fill="#DAB88B"/>
<path d="M27.1927 60.1768C48.0808 60.1768 50.6545 78.4911 50.9716 83.0043C51.0103 83.5553 50.5685 84.0003 50.0162 84.0003H4.36914C3.81685 84.0003 3.375 83.5553 3.41371 83.0043C3.73084 78.4911 6.30459 60.1768 27.1927 60.1768Z" stroke="#DAB88B" stroke-width="6" stroke-linecap="round"/>
<path d="M74.8398 3V22.0588" stroke="#DAB88B" stroke-width="6" stroke-linecap="round"/>
<path d="M84.3691 12.5293L65.3103 12.5293" stroke="#DAB88B" stroke-width="6" stroke-linecap="round"/>
</svg>
