<svg width="70" height="69" viewBox="0 0 70 69" fill="none" xmlns="http://www.w3.org/2000/svg">
    <path
        d="M0.00418279 33.8312C0.317892 33.6618 0.148489 33.3732 0.149535 33.1473C0.148283 32.0697 0.244178 30.9943 0.436056 29.9339C0.527032 29.455 0.715257 29.2688 1.22033 29.1925C3.65471 28.8255 6.0776 28.3863 8.51093 28.0098C8.8832 27.9523 9.03378 27.8247 9.12267 27.4807C9.65388 25.3893 10.503 23.4171 11.5675 21.5432C11.7902 21.1521 11.7892 20.8865 11.5152 20.5153C10.1004 18.5943 8.73053 16.6399 7.31361 14.719C6.9999 14.2871 6.91729 13.9556 7.25714 13.5018C9.06529 11.0943 11.2051 8.95485 13.6129 7.1471C14.0584 6.81143 14.3951 6.87731 14.8311 7.19834C16.7563 8.61107 18.7128 9.98094 20.6473 11.3811C20.961 11.6091 21.1879 11.7252 21.5884 11.4941C23.4953 10.3876 25.5428 9.54339 27.6754 8.98439C27.9891 8.90491 28.1052 8.76374 28.1586 8.42076C28.5392 5.99369 28.9847 3.57604 29.3444 1.14688C29.4259 0.59789 29.6298 0.414893 30.137 0.3281C32.6467 -0.0828588 35.1647 -0.0724018 37.6744 0.164972C39.8432 0.374111 39.8296 0.452538 40.1642 2.58994C40.4727 4.54122 40.8073 6.48831 41.1001 8.43226C41.1513 8.77734 41.3019 8.91642 41.6115 8.99693C43.7424 9.55956 45.7879 10.4061 47.6932 11.5139C48.1063 11.7513 48.3301 11.6112 48.627 11.3968C50.5626 9.99662 52.5149 8.62048 54.4296 7.1952C54.9117 6.83652 55.2777 6.85535 55.7158 7.18997C58.072 8.9822 60.177 11.0826 61.9743 13.4349C62.3163 13.8835 62.3121 14.2484 61.9566 14.7274C60.5334 16.6431 59.1656 18.5964 57.756 20.5258C57.5144 20.8572 57.4496 21.104 57.6671 21.4847C58.759 23.3633 59.5959 25.379 60.1559 27.4786C60.2343 27.7787 60.3504 27.9596 60.7477 28.0192C63.1821 28.3842 65.6039 28.8286 68.0373 29.1925C68.5444 29.2688 68.7473 29.4591 68.8331 29.9318C69.1865 31.8904 69.1604 33.8647 69.1133 35.84C69.0872 36.9411 69.0579 38.0422 68.7996 39.1266C68.7086 39.5135 68.5559 39.6547 68.1544 39.7174C65.7221 40.097 63.2982 40.53 60.8659 40.9085C60.4476 40.9744 60.2385 41.1176 60.1276 41.5275C59.5783 43.6064 58.7499 45.6012 57.665 47.4577C57.4559 47.8216 57.4736 48.059 57.7288 48.4051C59.1457 50.325 60.5156 52.2815 61.9335 54.2014C62.2703 54.6573 62.3518 55.016 61.9879 55.4866C60.181 57.8629 58.0566 59.9799 55.674 61.7785C55.2411 62.1069 54.9012 62.0922 54.4453 61.7576C52.5244 60.3417 50.5605 58.9823 48.6291 57.5738C48.2767 57.3165 48.0247 57.2339 47.6138 57.4744C45.7565 58.5601 43.76 59.3879 41.6794 59.935C41.2904 60.0395 41.1388 60.2037 41.074 60.646C40.7268 63.0009 40.273 65.3402 39.9446 67.6972C39.8474 68.3957 39.4918 68.5829 38.9271 68.6728C37.5028 68.8817 36.0634 68.9706 34.6241 68.9384C33.2647 68.9238 31.9053 68.9102 30.5459 68.699C29.8651 68.5944 29.4144 68.4773 29.3005 67.6041C28.993 65.245 28.5193 62.9079 28.1586 60.554C28.0989 60.1682 27.9442 60.0312 27.6252 59.9433C25.4969 59.38 23.4554 58.5289 21.5571 57.4138C21.189 57.1984 20.96 57.3186 20.6661 57.532C18.7337 58.9395 16.7772 60.3104 14.8531 61.7304C14.3836 62.0776 14.0259 62.1247 13.5596 61.7691C11.1801 59.9667 9.0598 57.8457 7.25819 55.4657C6.93193 55.0327 6.95598 54.6918 7.28956 54.2411C8.72426 52.3024 10.1046 50.3219 11.5351 48.3852C11.7944 48.0328 11.7861 47.7923 11.5811 47.4378C10.4988 45.5814 9.67185 43.5873 9.12267 41.5098C9.0181 41.1114 8.82255 40.9639 8.39068 40.898C5.95629 40.5279 3.53341 40.0908 1.10112 39.7143C0.688069 39.6505 0.534352 39.4937 0.459061 39.1141C0.252802 38.0564 0.147758 36.9814 0.145352 35.9038C0.145352 35.6779 0.309527 35.3893 0 35.2199L0.00418279 33.8312ZM34.6262 53.3021C45.0246 53.3565 53.4488 44.8989 53.5105 34.3499C53.5669 24.1219 44.9922 15.6612 34.5279 15.6214C24.4317 15.5859 15.8172 24.0989 15.7587 34.1763C15.698 44.7797 24.0552 53.2477 34.6262 53.3021Z"
        fill="white" />
</svg>
    